<?xml version="1.0" encoding="UTF-8"?>
<!-- OG image (1200x630) served via Astro endpoint -->
<svg xmlns="http://www.w3.org/2000/svg" width="1200" height="630" viewBox="0 0 1200 630">
  <defs>
    <linearGradient id="bggrad" x1="0" y1="0" x2="1" y2="1">
      <stop offset="0" stop-color="#0a0a0a"/>
      <stop offset="1" stop-color="#0a0a0a"/>
    </linearGradient>
    <radialGradient id="glow1" cx="70%" cy="10%" r="50%">
      <stop offset="0" stop-color="#FF5E00" stop-opacity="0.22"/>
      <stop offset="1" stop-color="#FF5E00" stop-opacity="0"/>
    </radialGradient>
    <radialGradient id="glow2" cx="10%" cy="60%" r="45%">
      <stop offset="0" stop-color="#FF5E00" stop-opacity="0.18"/>
      <stop offset="1" stop-color="#FF5E00" stop-opacity="0"/>
    </radialGradient>
    <linearGradient id="accent" x1="0" y1="0" x2="1" y2="0">
      <stop offset="0" stop-color="#FF5E00"/>
      <stop offset="1" stop-color="#FF7F33"/>
    </linearGradient>
    <filter id="soft" x="-20%" y="-20%" width="140%" height="140%">
      <feGaussianBlur stdDeviation="12" />
    </filter>
  </defs>

  <rect width="1200" height="630" fill="url(#bggrad)"/>
  <ellipse cx="840" cy="20" rx="520" ry="300" fill="url(#glow1)"/>
  <ellipse cx="120" cy="420" rx="400" ry="260" fill="url(#glow2)"/>

  <path d="M-20,470 C180,430 280,520 460,480 620,445 740,520 890,500 1030,480 1120,520 1220,500" fill="none" stroke="url(#accent)" stroke-width="4" opacity="0.35" />
  <path d="M-20,500 C180,460 280,550 460,510 620,475 740,550 890,530 1030,510 1120,550 1220,530" fill="none" stroke="url(#accent)" stroke-width="2" opacity="0.25" />
  <path d="M-20,440 C180,400 280,490 460,450 620,415 740,490 890,470 1030,450 1120,490 1220,470" fill="none" stroke="url(#accent)" stroke-width="2" opacity="0.18" />

  <g filter="url(#soft)">
    <circle cx="220" cy="180" r="10" fill="#FF5E00" opacity="0.9"/>
  </g>

  <g>
    <text x="200" y="300" fill="#FFFFFF" font-size="112" font-family="Space Grotesk, Arial, sans-serif" font-weight="700" letter-spacing="2">BJORNOS</text>
    <text x="200" y="360" fill="#FFFFFF" font-size="28" font-family="Inter, Arial, sans-serif" opacity="0.85">Drum & Bass DJ</text>
  </g>

  <g opacity="0.9">
    <rect x="200" y="390" width="210" height="8" rx="4" fill="url(#accent)"/>
  </g>
</svg>